<svg width="32" height="113" viewBox="0 0 32 113" fill="none" xmlns="http://www.w3.org/2000/svg">
<g id="Union">
<path fill-rule="evenodd" clip-rule="evenodd" d="M2.64097 56.0205L2.51049 55.7643L28.8744 3.99999L29.7821 5.78217L3.6849 57.0228L29.2716 107.261L28.364 109.043L2.00004 57.279L2.64097 56.0205Z" fill="white"/>
<path d="M2.64097 56.0205L3.9776 56.7013L4.32431 56.0205L3.9776 55.3398L2.64097 56.0205ZM2.51049 55.7643L1.17386 55.0836L0.82715 55.7643L1.17386 56.4451L2.51049 55.7643ZM28.8744 3.99999L30.2111 3.31924L28.8744 0.694832L27.5378 3.31924L28.8744 3.99999ZM29.7821 5.78217L31.1187 6.46292L31.4654 5.78217L31.1187 5.10142L29.7821 5.78217ZM3.6849 57.0228L2.34828 56.342L2.00156 57.0228L2.34828 57.7035L3.6849 57.0228ZM29.2716 107.261L30.6083 107.942L30.955 107.261L30.6083 106.58L29.2716 107.261ZM28.364 109.043L27.0273 109.724L28.364 112.348L29.7006 109.724L28.364 109.043ZM2.00004 57.279L0.663408 56.5982L0.316696 57.279L0.66341 57.9597L2.00004 57.279ZM3.9776 55.3398L3.84712 55.0836L1.17386 56.4451L1.30434 56.7013L3.9776 55.3398ZM3.84712 56.4451L30.2111 4.68075L27.5378 3.31924L1.17386 55.0836L3.84712 56.4451ZM27.5378 4.68075L28.4455 6.46292L31.1187 5.10142L30.2111 3.31924L27.5378 4.68075ZM28.4455 5.10142L2.34828 56.342L5.02153 57.7035L31.1187 6.46292L28.4455 5.10142ZM2.34828 57.7035L27.935 107.942L30.6083 106.58L5.02153 56.342L2.34828 57.7035ZM27.935 106.58L27.0273 108.363L29.7006 109.724L30.6083 107.942L27.935 106.58ZM29.7006 108.363L3.33667 56.5982L0.66341 57.9597L27.0273 109.724L29.7006 108.363ZM3.33667 57.9597L3.9776 56.7013L1.30434 55.3398L0.663408 56.5982L3.33667 57.9597Z" fill="white"/>
</g>
</svg>
