<svg width="32" height="113" viewBox="0 0 32 113" fill="none" xmlns="http://www.w3.org/2000/svg">
<path fill-rule="evenodd" clip-rule="evenodd" d="M28.8697 56.9795L29.0001 57.2357L2.63619 109L1.72852 107.218L27.8257 55.9772L2.23897 5.73887L3.14664 3.9567L29.5106 55.721L28.8697 56.9795Z" fill="white"/>
<path d="M28.8697 56.9795L27.533 56.2987L27.1863 56.9795L27.533 57.6602L28.8697 56.9795ZM29.0001 57.2357L30.3368 57.9164L30.6835 57.2357L30.3368 56.5549L29.0001 57.2357ZM2.63619 109L1.29956 109.681L2.63619 112.305L3.97282 109.681L2.63619 109ZM1.72852 107.218L0.391888 106.537L0.0451753 107.218L0.391887 107.899L1.72852 107.218ZM27.8257 55.9772L29.1623 56.658L29.5091 55.9772L29.1623 55.2965L27.8257 55.9772ZM2.23897 5.73887L0.902343 5.05811L0.55563 5.73887L0.902343 6.41962L2.23897 5.73887ZM3.14664 3.9567L4.48327 3.27594L3.14664 0.651536L1.81001 3.27594L3.14664 3.9567ZM29.5106 55.721L30.8472 56.4018L31.1939 55.721L30.8472 55.0403L29.5106 55.721ZM27.533 57.6602L27.6635 57.9164L30.3368 56.5549L30.2063 56.2987L27.533 57.6602ZM27.6635 56.5549L1.29956 108.319L3.97282 109.681L30.3368 57.9164L27.6635 56.5549ZM3.97282 108.319L3.06514 106.537L0.391887 107.899L1.29956 109.681L3.97282 108.319ZM3.06514 107.899L29.1623 56.658L26.4891 55.2965L0.391888 106.537L3.06514 107.899ZM29.1623 55.2965L3.5756 5.05811L0.902343 6.41962L26.4891 56.658L29.1623 55.2965ZM3.5756 6.41962L4.48327 4.63745L1.81001 3.27594L0.902343 5.05811L3.5756 6.41962ZM1.81001 4.63745L28.174 56.4018L30.8472 55.0403L4.48327 3.27594L1.81001 4.63745ZM28.174 55.0403L27.533 56.2987L30.2063 57.6602L30.8472 56.4018L28.174 55.0403Z" fill="white"/>
</svg>
